<?xml version='1.0' encoding='utf-8'?>
<svg xmlns="http://www.w3.org/2000/svg" version="1.1" width="960" height="360"><g><rect x="60" y="110" width="220" height="140" rx="20" ry="20" fill="#f5f9ff" stroke="#2b6cb0" stroke-width="4" /><text x="170.0" y="160.0" fill="#1a365d" font-size="24" font-weight="bold" text-anchor="middle" dominant-baseline="middle">แหล่งสัญญาณ</text><text x="170.0" y="188.0" fill="#1a365d" font-size="24" font-weight="bold" text-anchor="middle" dominant-baseline="middle">(Source)</text></g><g><rect x="300" y="110" width="220" height="140" rx="20" ry="20" fill="#f5f9ff" stroke="#2b6cb0" stroke-width="4" /><text x="410.0" y="160.0" fill="#1a365d" font-size="24" font-weight="bold" text-anchor="middle" dominant-baseline="middle">จัดการ ROI</text><text x="410.0" y="188.0" fill="#1a365d" font-size="24" font-weight="bold" text-anchor="middle" dominant-baseline="middle">(ROI Manager)</text></g><g><rect x="540" y="110" width="220" height="140" rx="20" ry="20" fill="#f5f9ff" stroke="#2b6cb0" stroke-width="4" /><text x="650.0" y="160.0" fill="#1a365d" font-size="24" font-weight="bold" text-anchor="middle" dominant-baseline="middle">ประมวลผลโมดูล</text><text x="650.0" y="188.0" fill="#1a365d" font-size="24" font-weight="bold" text-anchor="middle" dominant-baseline="middle">(Inference Modules)</text></g><g><rect x="780" y="110" width="160" height="140" rx="20" ry="20" fill="#f5f9ff" stroke="#2b6cb0" stroke-width="4" /><text x="860.0" y="160.0" fill="#1a365d" font-size="24" font-weight="bold" text-anchor="middle" dominant-baseline="middle">ผลลัพธ์ &amp;</text><text x="860.0" y="188.0" fill="#1a365d" font-size="24" font-weight="bold" text-anchor="middle" dominant-baseline="middle">แจ้งเตือน</text></g><defs><marker id="arrow" markerWidth="12" markerHeight="12" refX="10" refY="6" orient="auto" markerUnits="strokeWidth"><path d="M0,0 L0,12 L12,6 z" fill="#2b6cb0" /></marker></defs><line x1="280" y1="180.0" x2="300" y2="180.0" stroke="#2b6cb0" stroke-width="6" marker-end="url(#arrow)" /><line x1="520" y1="180.0" x2="540" y2="180.0" stroke="#2b6cb0" stroke-width="6" marker-end="url(#arrow)" /><line x1="760" y1="180.0" x2="780" y2="180.0" stroke="#2b6cb0" stroke-width="6" marker-end="url(#arrow)" /><text x="480" y="320" fill="#2d3748" font-size="28" font-weight="bold" text-anchor="middle">โฟลว์การทำงานหลักของ VisionROI</text></svg>